# xmcd
#
# Track frame offsets:
#  150
#  10717
#  26548
#  46919
#
# Disc length: 813 seconds
#
# Revision: 0
# Processed by: cddbd v1.5.1PL2 Copyright (c) Steve Scherf et al.
# Submitted via: Collectorz.com_Music_Collector 6.9
#
DISCID=21032b04
DTITLE=The Pistolas - Listen Listen
DYEAR=2006
DGENRE=
TTITLE0=Listen Listen
TTITLE1=1-2-3 Revolt!
TTITLE2=Green Light
TTITLE3=Villains
EXTD=
EXTT0=
EXTT1=
EXTT2=
EXTT3=
PLAYORDER=
